<svg width="20" height="20" viewBox="0 0 20 20" fill="none" xmlns="http://www.w3.org/2000/svg">
<path d="M11.6667 8.04171V7.04171C12.125 6.84726 12.5938 6.70143 13.0729 6.60421C13.5521 6.50699 14.0556 6.45837 14.5833 6.45837C14.9445 6.45837 15.2986 6.48615 15.6458 6.54171C15.9931 6.59726 16.3333 6.66671 16.6667 6.75004V7.66671C16.3333 7.54171 15.9965 7.44796 15.6563 7.38546C15.316 7.32296 14.9583 7.29171 14.5833 7.29171C14.0556 7.29171 13.5486 7.35768 13.0625 7.48962C12.5764 7.62157 12.1111 7.8056 11.6667 8.04171ZM11.6667 12.625V11.6042C12.125 11.4098 12.5938 11.2674 13.0729 11.1771C13.5521 11.0868 14.0556 11.0417 14.5833 11.0417C14.9445 11.0417 15.2986 11.0695 15.6458 11.125C15.9931 11.1806 16.3333 11.25 16.6667 11.3334V12.25C16.3333 12.125 15.9965 12.0313 15.6563 11.9688C15.316 11.9063 14.9583 11.875 14.5833 11.875C14.0556 11.875 13.5486 11.9375 13.0625 12.0625C12.5764 12.1875 12.1111 12.375 11.6667 12.625ZM11.6667 10.3334V9.33337C12.125 9.13893 12.5938 8.9931 13.0729 8.89587C13.5521 8.79865 14.0556 8.75004 14.5833 8.75004C14.9445 8.75004 15.2986 8.77782 15.6458 8.83337C15.9931 8.88893 16.3333 8.95837 16.6667 9.04171V9.95837C16.3333 9.83337 15.9965 9.73962 15.6563 9.67712C15.316 9.61462 14.9583 9.58337 14.5833 9.58337C14.0556 9.58337 13.5486 9.64935 13.0625 9.78129C12.5764 9.91324 12.1111 10.0973 11.6667 10.3334ZM5.16668 13.75C5.91668 13.75 6.64237 13.8368 7.34376 14.0105C8.04515 14.1841 8.73612 14.4445 9.41668 14.7917V5.89587C8.79168 5.47921 8.11459 5.15629 7.38543 4.92712C6.65626 4.69796 5.91668 4.58337 5.16668 4.58337C4.6389 4.58337 4.12154 4.64935 3.61459 4.78129C3.10765 4.91324 2.59723 5.07643 2.08334 5.27087V14.3125C2.5139 14.1181 3.00348 13.9757 3.55209 13.8855C4.1007 13.7952 4.6389 13.75 5.16668 13.75ZM10.6667 14.7917C11.3611 14.4445 12.0417 14.1841 12.7083 14.0105C13.375 13.8368 14.0833 13.75 14.8333 13.75C15.3611 13.75 15.9063 13.7917 16.4688 13.875C17.0313 13.9584 17.5139 14.0695 17.9167 14.2084V5.27087C17.4445 5.03476 16.9445 4.86115 16.4167 4.75004C15.8889 4.63893 15.3611 4.58337 14.8333 4.58337C14.0833 4.58337 13.3576 4.69796 12.6563 4.92712C11.9549 5.15629 11.2917 5.47921 10.6667 5.89587V14.7917ZM10.0417 16.6667C9.33334 16.1389 8.56251 15.7327 7.72918 15.448C6.89584 15.1632 6.04168 15.0209 5.16668 15.0209C4.65279 15.0209 4.15279 15.0834 3.66668 15.2084C3.18057 15.3334 2.69445 15.4862 2.20834 15.6667C1.8889 15.8195 1.57987 15.7987 1.28126 15.6042C0.982649 15.4098 0.833344 15.132 0.833344 14.7709V5.12504C0.833344 4.91671 0.881955 4.72574 0.979177 4.55212C1.0764 4.37851 1.22223 4.2431 1.41668 4.14587C2.00001 3.8681 2.60765 3.66324 3.23959 3.53129C3.87154 3.39935 4.5139 3.33337 5.16668 3.33337C6.04168 3.33337 6.89237 3.45143 7.71876 3.68754C8.54515 3.92365 9.31946 4.28476 10.0417 4.77087C10.75 4.28476 11.5104 3.92365 12.3229 3.68754C13.1354 3.45143 13.9722 3.33337 14.8333 3.33337C15.4861 3.33337 16.125 3.39935 16.75 3.53129C17.375 3.66324 17.9792 3.8681 18.5625 4.14587C18.757 4.2431 18.9063 4.37851 19.0104 4.55212C19.1146 4.72574 19.1667 4.91671 19.1667 5.12504V14.7709C19.1667 15.1598 19.0104 15.4549 18.6979 15.6563C18.3854 15.8577 18.0764 15.8612 17.7708 15.6667C17.2986 15.4723 16.8195 15.316 16.3333 15.198C15.8472 15.0799 15.3472 15.0209 14.8333 15.0209C13.9583 15.0209 13.1181 15.1667 12.3125 15.4584C11.507 15.75 10.75 16.1528 10.0417 16.6667Z" fill="#DF6D03"/>
</svg>
