<svg width="497" height="49" viewBox="0 0 497 49" fill="none" xmlns="http://www.w3.org/2000/svg">
<path d="M18.304 37.48C14.336 37.48 11.04 36.744 8.416 35.272C5.824 33.8 3.872 31.752 2.56 29.128C1.28 26.472 0.639999 23.368 0.639999 19.816C0.639999 16.36 1.312 13.32 2.656 10.696C4 8.03998 6 5.97598 8.656 4.50398C11.344 2.99998 14.64 2.24798 18.544 2.24798C21.2 2.24798 23.408 2.50398 25.168 3.01598C26.96 3.49598 28.304 4.15198 29.2 4.98398C30.096 5.81598 30.544 6.75998 30.544 7.81598C30.544 8.93598 30.016 9.89598 28.96 10.696C27.904 11.496 26.368 11.896 24.352 11.896C24.352 10.584 24.128 9.44798 23.68 8.48798C23.264 7.49598 22.624 6.72798 21.76 6.18398C20.896 5.60798 19.776 5.31998 18.4 5.31998C16.064 5.31998 14.176 5.89598 12.736 7.04798C11.328 8.16798 10.304 9.79998 9.664 11.944C9.024 14.088 8.704 16.712 8.704 19.816C8.704 22.888 9.04 25.496 9.712 27.64C10.384 29.784 11.472 31.416 12.976 32.536C14.512 33.656 16.528 34.216 19.024 34.216C19.632 34.216 20.224 34.2 20.8 34.168C21.408 34.104 21.984 34.008 22.528 33.88V26.824C22.528 25.96 22.4 25.288 22.144 24.808C21.888 24.296 21.504 23.944 20.992 23.752C20.512 23.528 19.888 23.416 19.12 23.416H18.496V20.872H33.568V23.416H32.944C32.304 23.416 31.76 23.528 31.312 23.752C30.896 23.976 30.592 24.344 30.4 24.856C30.208 25.368 30.112 26.088 30.112 27.016V34.888C28.256 35.752 26.368 36.408 24.448 36.856C22.528 37.272 20.48 37.48 18.304 37.48Z" fill="#141414"/>
<path d="M44.5866 37.48C43.1786 37.48 41.8986 37.208 40.7466 36.664C39.6266 36.088 38.7306 35.224 38.0586 34.072C37.3866 32.888 37.0506 31.416 37.0506 29.656C37.0506 27.064 37.9466 25.144 39.7386 23.896C41.5306 22.648 44.2186 21.96 47.8026 21.832L51.7386 21.688V19.048C51.7386 17.96 51.6746 17.016 51.5466 16.216C51.4186 15.384 51.1466 14.744 50.7306 14.296C50.3146 13.816 49.6586 13.576 48.7626 13.576C47.9626 13.576 47.3226 13.8 46.8426 14.248C46.3626 14.696 46.0266 15.32 45.8346 16.12C45.6426 16.888 45.5466 17.768 45.5466 18.76C43.4026 18.76 41.7866 18.52 40.6986 18.04C39.6106 17.56 39.0666 16.728 39.0666 15.544C39.0666 14.36 39.5146 13.416 40.4106 12.712C41.3066 12.008 42.5066 11.496 44.0106 11.176C45.5146 10.824 47.1626 10.648 48.9546 10.648C52.3146 10.648 54.8266 11.256 56.4906 12.472C58.1866 13.688 59.0346 15.8 59.0346 18.808V31.048C59.0346 31.912 59.1146 32.6 59.2746 33.112C59.4666 33.592 59.7706 33.944 60.1866 34.168C60.6346 34.36 61.2106 34.456 61.9146 34.456H62.1066V37H53.1786L52.1706 33.688H51.7386C51.0346 34.552 50.3626 35.272 49.7226 35.848C49.1146 36.392 48.4106 36.792 47.6106 37.048C46.8106 37.336 45.8026 37.48 44.5866 37.48ZM47.2266 33.976C48.1546 33.976 48.9546 33.736 49.6266 33.256C50.2986 32.744 50.8106 32.024 51.1626 31.096C51.5466 30.168 51.7386 29.08 51.7386 27.832V24.232L49.5786 24.376C48.2986 24.44 47.2906 24.696 46.5546 25.144C45.8186 25.56 45.2906 26.168 44.9706 26.968C44.6506 27.736 44.4906 28.696 44.4906 29.848C44.4906 30.744 44.5866 31.512 44.7786 32.152C44.9706 32.76 45.2746 33.224 45.6906 33.544C46.1066 33.832 46.6186 33.976 47.2266 33.976Z" fill="#141414"/>
<path d="M82.681 37.48C80.825 37.48 79.305 37.096 78.121 36.328C76.969 35.528 76.041 34.504 75.337 33.256H74.905L73.561 37H64.441V34.456H64.777C65.385 34.456 65.961 34.376 66.505 34.216C67.081 34.056 67.545 33.736 67.897 33.256C68.249 32.776 68.425 32.056 68.425 31.096V6.27998C68.425 5.35198 68.249 4.66398 67.897 4.21598C67.545 3.76798 67.081 3.46398 66.505 3.30398C65.961 3.14398 65.337 3.06398 64.633 3.06398H64.441V0.519978H75.721V8.72798C75.721 9.20798 75.705 9.81598 75.673 10.552C75.641 11.256 75.593 11.976 75.529 12.712C75.465 13.448 75.401 14.056 75.337 14.536H75.673C76.377 13.352 77.289 12.424 78.409 11.752C79.561 11.048 81.049 10.696 82.873 10.696C86.009 10.696 88.393 11.768 90.025 13.912C91.689 16.024 92.521 19.4 92.521 24.04C92.521 27.144 92.137 29.688 91.369 31.672C90.633 33.656 89.529 35.128 88.057 36.088C86.617 37.016 84.825 37.48 82.681 37.48ZM80.665 33.88C81.721 33.88 82.569 33.496 83.209 32.728C83.881 31.96 84.361 30.84 84.649 29.368C84.969 27.896 85.129 26.104 85.129 23.992C85.129 21.816 84.969 20.008 84.649 18.568C84.361 17.128 83.881 16.056 83.209 15.352C82.569 14.616 81.705 14.248 80.617 14.248C78.729 14.248 77.433 15.048 76.729 16.648C76.057 18.248 75.721 20.712 75.721 24.04C75.721 26.152 75.865 27.944 76.153 29.416C76.441 30.856 76.937 31.96 77.641 32.728C78.377 33.496 79.385 33.88 80.665 33.88Z" fill="#141414"/>
<path d="M95.7569 37V34.456H95.9009C96.6369 34.456 97.2769 34.376 97.8209 34.216C98.3649 34.056 98.7969 33.736 99.1169 33.256C99.4369 32.744 99.5969 31.992 99.5969 31V17.08C99.5969 16.12 99.4529 15.416 99.1649 14.968C98.8769 14.488 98.4769 14.184 97.9649 14.056C97.4529 13.896 96.8449 13.816 96.1409 13.816H95.9969V11.272H105.693L106.653 15.016H106.893C107.309 14.056 107.789 13.256 108.333 12.616C108.877 11.976 109.565 11.496 110.397 11.176C111.261 10.856 112.349 10.696 113.661 10.696C115.549 10.696 116.941 11.032 117.837 11.704C118.733 12.376 119.181 13.336 119.181 14.584C119.181 16.056 118.637 17.208 117.549 18.04C116.493 18.84 115.005 19.24 113.085 19.24C113.085 18.344 113.005 17.608 112.845 17.032C112.717 16.456 112.477 16.024 112.125 15.736C111.805 15.416 111.341 15.256 110.733 15.256C109.901 15.256 109.229 15.544 108.717 16.12C108.205 16.696 107.821 17.416 107.565 18.28C107.309 19.112 107.133 19.96 107.037 20.824C106.941 21.688 106.893 22.392 106.893 22.936V31.24C106.893 32.168 107.037 32.872 107.325 33.352C107.613 33.8 108.013 34.104 108.525 34.264C109.037 34.392 109.613 34.456 110.253 34.456H111.789V37H95.7569Z" fill="#141414"/>
<path d="M120.738 37V34.456H121.314C121.794 34.456 122.29 34.392 122.802 34.264C123.346 34.104 123.794 33.8 124.146 33.352C124.53 32.904 124.722 32.232 124.722 31.336V16.744C124.722 15.88 124.53 15.24 124.146 14.824C123.762 14.408 123.298 14.136 122.754 14.008C122.242 13.88 121.762 13.816 121.314 13.816H120.738V11.272H132.018V31.336C132.018 32.232 132.194 32.904 132.546 33.352C132.93 33.8 133.394 34.104 133.938 34.264C134.482 34.392 134.978 34.456 135.426 34.456H136.002V37H120.738ZM128.13 6.95198C126.978 6.95198 126.002 6.67998 125.202 6.13598C124.434 5.55998 124.05 4.67998 124.05 3.49598C124.05 2.27998 124.45 1.39998 125.25 0.855979C126.05 0.311978 127.026 0.039978 128.178 0.039978C129.266 0.039978 130.21 0.311978 131.01 0.855979C131.842 1.39998 132.258 2.27998 132.258 3.49598C132.258 4.67998 131.842 5.55998 131.01 6.13598C130.21 6.67998 129.25 6.95198 128.13 6.95198Z" fill="#141414"/>
<path d="M151.485 37.48C147.421 37.48 144.333 36.328 142.221 34.024C140.109 31.688 139.053 28.44 139.053 24.28C139.053 19.768 140.093 16.376 142.173 14.104C144.253 11.8 147.181 10.648 150.957 10.648C154.445 10.648 157.181 11.624 159.165 13.576C161.181 15.528 162.189 18.408 162.189 22.216V24.664H146.445C146.509 26.808 146.797 28.568 147.309 29.944C147.821 31.288 148.541 32.28 149.469 32.92C150.429 33.56 151.565 33.88 152.877 33.88C153.997 33.88 154.989 33.72 155.853 33.4C156.749 33.048 157.517 32.584 158.157 32.008C158.797 31.4 159.293 30.728 159.645 29.992C160.093 30.216 160.413 30.536 160.605 30.952C160.829 31.336 160.941 31.8 160.941 32.344C160.941 33.24 160.605 34.088 159.933 34.888C159.261 35.656 158.221 36.28 156.813 36.76C155.437 37.24 153.661 37.48 151.485 37.48ZM154.845 21.592C154.845 19.96 154.717 18.568 154.461 17.416C154.205 16.232 153.805 15.336 153.261 14.728C152.717 14.088 151.981 13.768 151.053 13.768C150.157 13.768 149.373 14.072 148.701 14.68C148.061 15.256 147.549 16.136 147.165 17.32C146.813 18.472 146.605 19.896 146.541 21.592H154.845Z" fill="#141414"/>
<path d="M165.035 37V34.456H165.611C166.091 34.456 166.587 34.392 167.099 34.264C167.643 34.104 168.091 33.8 168.443 33.352C168.827 32.904 169.019 32.232 169.019 31.336V5.99198C169.019 5.12798 168.827 4.48798 168.443 4.07198C168.059 3.65598 167.595 3.38398 167.051 3.25598C166.539 3.12798 166.059 3.06398 165.611 3.06398H165.035V0.519978H176.315V31.336C176.315 32.232 176.491 32.904 176.843 33.352C177.227 33.8 177.691 34.104 178.235 34.264C178.779 34.392 179.275 34.456 179.723 34.456H180.299V37H165.035Z" fill="#141414"/>
<path d="M194.906 37V34.456H196.923C197.403 34.456 197.819 34.392 198.171 34.264C198.555 34.104 198.842 33.8 199.035 33.352C199.259 32.904 199.37 32.232 199.37 31.336V8.19998C199.37 7.33598 199.259 6.69598 199.035 6.27998C198.811 5.86398 198.506 5.59198 198.122 5.46398C197.77 5.33598 197.371 5.27198 196.923 5.27198H194.906V2.72798H210.747C214.299 2.72798 217.339 3.35198 219.867 4.59998C222.395 5.81598 224.33 7.65598 225.674 10.12C227.05 12.552 227.738 15.592 227.738 19.24C227.738 22.728 227.098 25.816 225.818 28.504C224.538 31.16 222.635 33.24 220.107 34.744C217.611 36.248 214.491 37 210.747 37H194.906ZM209.643 34.024C211.851 34.024 213.691 33.432 215.163 32.248C216.635 31.064 217.739 29.368 218.475 27.16C219.243 24.92 219.626 22.264 219.626 19.192C219.626 16.152 219.243 13.64 218.475 11.656C217.739 9.63998 216.635 8.13598 215.163 7.14398C213.691 6.15198 211.867 5.65598 209.691 5.65598H206.954V34.024H209.643Z" fill="#141414"/>
<path d="M236.478 37.384C235.39 37.384 234.462 37.112 233.694 36.568C232.926 35.992 232.542 34.984 232.542 33.544C232.542 32.072 232.926 31.064 233.694 30.52C234.462 29.976 235.39 29.704 236.478 29.704C237.534 29.704 238.446 29.976 239.214 30.52C240.014 31.064 240.414 32.072 240.414 33.544C240.414 34.984 240.014 35.992 239.214 36.568C238.446 37.112 237.534 37.384 236.478 37.384Z" fill="#141414"/>
<path d="M283.696 48.52C282.256 48.52 280.832 48.312 279.424 47.896C278.048 47.48 276.784 46.808 275.632 45.88C274.48 44.984 273.536 43.816 272.8 42.376C272.064 40.936 271.616 39.208 271.456 37.192C268.576 36.744 266.192 35.752 264.304 34.216C262.416 32.648 260.992 30.632 260.032 28.168C259.104 25.704 258.64 22.904 258.64 19.768C258.64 16.216 259.232 13.128 260.416 10.504C261.632 7.87998 263.44 5.84798 265.84 4.40798C268.272 2.93598 271.312 2.19998 274.96 2.19998C278.416 2.19998 281.344 2.93598 283.744 4.40798C286.176 5.84798 288.016 7.89598 289.264 10.552C290.512 13.176 291.136 16.264 291.136 19.816C291.136 22.792 290.688 25.464 289.792 27.832C288.896 30.2 287.584 32.168 285.856 33.736C284.128 35.304 282 36.392 279.472 37C279.6 38.76 279.872 40.2 280.288 41.32C280.736 42.472 281.28 43.368 281.92 44.008C282.56 44.648 283.264 45.096 284.032 45.352C284.8 45.608 285.584 45.736 286.384 45.736H287.152V48.52H283.696ZM274.912 34.36C276.416 34.36 277.68 34.04 278.704 33.4C279.76 32.728 280.608 31.768 281.248 30.52C281.888 29.272 282.352 27.752 282.64 25.96C282.928 24.168 283.072 22.12 283.072 19.816C283.072 17.512 282.928 15.464 282.64 13.672C282.352 11.88 281.888 10.36 281.248 9.11198C280.608 7.86398 279.776 6.91998 278.752 6.27998C277.728 5.63998 276.464 5.31998 274.96 5.31998C273.456 5.31998 272.176 5.63998 271.12 6.27998C270.064 6.91998 269.216 7.86398 268.576 9.11198C267.936 10.36 267.456 11.88 267.136 13.672C266.848 15.464 266.704 17.512 266.704 19.816C266.704 22.12 266.848 24.168 267.136 25.96C267.456 27.752 267.936 29.272 268.576 30.52C269.216 31.768 270.064 32.728 271.12 33.4C272.176 34.04 273.44 34.36 274.912 34.36Z" fill="#141414"/>
<path d="M306.165 37.48C303.669 37.48 301.749 36.712 300.405 35.176C299.061 33.608 298.389 31.208 298.389 27.976V17.224C298.389 16.296 298.277 15.592 298.053 15.112C297.829 14.6 297.477 14.264 296.997 14.104C296.517 13.912 295.893 13.816 295.125 13.816H295.029V11.272H305.685V26.632C305.685 28.008 305.781 29.208 305.973 30.232C306.197 31.224 306.581 32.008 307.125 32.584C307.669 33.128 308.405 33.4 309.333 33.4C310.357 33.4 311.189 33.112 311.829 32.536C312.469 31.928 312.933 31.08 313.221 29.992C313.541 28.872 313.701 27.576 313.701 26.104V16.888C313.701 15.96 313.541 15.288 313.221 14.872C312.901 14.424 312.485 14.136 311.973 14.008C311.461 13.88 310.885 13.816 310.245 13.816H310.101V11.272H320.997V31.432C320.997 32.36 321.125 33.048 321.381 33.496C321.669 33.912 322.053 34.184 322.533 34.312C323.045 34.408 323.605 34.456 324.213 34.456H324.597V37H315.045L313.989 33.592H313.749C313.269 34.424 312.741 35.096 312.165 35.608C311.621 36.12 311.029 36.52 310.389 36.808C309.749 37.064 309.077 37.24 308.373 37.336C307.669 37.432 306.933 37.48 306.165 37.48Z" fill="#141414"/>
<path d="M335.493 37.48C334.085 37.48 332.805 37.208 331.653 36.664C330.533 36.088 329.637 35.224 328.965 34.072C328.293 32.888 327.957 31.416 327.957 29.656C327.957 27.064 328.853 25.144 330.645 23.896C332.437 22.648 335.125 21.96 338.709 21.832L342.645 21.688V19.048C342.645 17.96 342.581 17.016 342.453 16.216C342.325 15.384 342.053 14.744 341.637 14.296C341.221 13.816 340.565 13.576 339.669 13.576C338.869 13.576 338.229 13.8 337.749 14.248C337.269 14.696 336.933 15.32 336.741 16.12C336.549 16.888 336.453 17.768 336.453 18.76C334.309 18.76 332.693 18.52 331.605 18.04C330.517 17.56 329.973 16.728 329.973 15.544C329.973 14.36 330.421 13.416 331.317 12.712C332.213 12.008 333.413 11.496 334.917 11.176C336.421 10.824 338.069 10.648 339.861 10.648C343.221 10.648 345.733 11.256 347.397 12.472C349.093 13.688 349.941 15.8 349.941 18.808V31.048C349.941 31.912 350.021 32.6 350.181 33.112C350.373 33.592 350.677 33.944 351.093 34.168C351.541 34.36 352.117 34.456 352.821 34.456H353.013V37H344.085L343.077 33.688H342.645C341.941 34.552 341.269 35.272 340.629 35.848C340.021 36.392 339.317 36.792 338.517 37.048C337.717 37.336 336.709 37.48 335.493 37.48ZM338.133 33.976C339.061 33.976 339.861 33.736 340.533 33.256C341.205 32.744 341.717 32.024 342.069 31.096C342.453 30.168 342.645 29.08 342.645 27.832V24.232L340.485 24.376C339.205 24.44 338.197 24.696 337.461 25.144C336.725 25.56 336.197 26.168 335.877 26.968C335.557 27.736 335.397 28.696 335.397 29.848C335.397 30.744 335.493 31.512 335.685 32.152C335.877 32.76 336.181 33.224 336.597 33.544C337.013 33.832 337.525 33.976 338.133 33.976Z" fill="#141414"/>
<path d="M366.531 37.48C364.451 37.48 362.675 37.016 361.203 36.088C359.731 35.16 358.611 33.72 357.843 31.768C357.107 29.784 356.739 27.256 356.739 24.184C356.739 21.08 357.107 18.536 357.843 16.552C358.611 14.568 359.715 13.096 361.155 12.136C362.627 11.176 364.387 10.696 366.435 10.696C368.227 10.696 369.699 11.064 370.851 11.8C372.003 12.504 372.915 13.416 373.587 14.536H373.923C373.859 13.928 373.795 13.272 373.731 12.568C373.667 11.864 373.619 11.176 373.587 10.504C373.555 9.79998 373.539 9.19198 373.539 8.67998V6.03998C373.539 5.14398 373.363 4.48798 373.011 4.07198C372.659 3.65598 372.179 3.38398 371.571 3.25598C370.995 3.12798 370.355 3.06398 369.651 3.06398H369.267V0.519978H380.835V31.096C380.835 32.056 381.011 32.776 381.363 33.256C381.747 33.736 382.243 34.056 382.851 34.216C383.459 34.376 384.115 34.456 384.819 34.456H385.011V37H375.699L374.355 33.256H373.923C373.219 34.536 372.275 35.56 371.091 36.328C369.939 37.096 368.419 37.48 366.531 37.48ZM368.595 33.88C370.483 33.88 371.779 33.08 372.483 31.48C373.187 29.848 373.539 27.384 373.539 24.088C373.539 21.976 373.379 20.184 373.059 18.712C372.771 17.24 372.275 16.136 371.571 15.4C370.867 14.632 369.875 14.248 368.595 14.248C367.539 14.248 366.675 14.632 366.003 15.4C365.363 16.168 364.883 17.288 364.563 18.76C364.275 20.2 364.131 21.992 364.131 24.136C364.131 26.312 364.275 28.12 364.563 29.56C364.883 31 365.363 32.088 366.003 32.824C366.675 33.528 367.539 33.88 368.595 33.88Z" fill="#141414"/>
<path d="M386.663 37V34.456H386.807C387.543 34.456 388.183 34.376 388.727 34.216C389.271 34.056 389.703 33.736 390.023 33.256C390.343 32.744 390.503 31.992 390.503 31V17.08C390.503 16.12 390.359 15.416 390.071 14.968C389.783 14.488 389.383 14.184 388.871 14.056C388.359 13.896 387.751 13.816 387.047 13.816H386.903V11.272H396.599L397.559 15.016H397.799C398.215 14.056 398.695 13.256 399.239 12.616C399.783 11.976 400.471 11.496 401.303 11.176C402.167 10.856 403.255 10.696 404.567 10.696C406.455 10.696 407.847 11.032 408.743 11.704C409.639 12.376 410.087 13.336 410.087 14.584C410.087 16.056 409.543 17.208 408.455 18.04C407.399 18.84 405.911 19.24 403.991 19.24C403.991 18.344 403.911 17.608 403.751 17.032C403.623 16.456 403.383 16.024 403.031 15.736C402.711 15.416 402.247 15.256 401.639 15.256C400.807 15.256 400.135 15.544 399.623 16.12C399.111 16.696 398.727 17.416 398.471 18.28C398.215 19.112 398.039 19.96 397.943 20.824C397.847 21.688 397.799 22.392 397.799 22.936V31.24C397.799 32.168 397.943 32.872 398.231 33.352C398.519 33.8 398.919 34.104 399.431 34.264C399.943 34.392 400.519 34.456 401.159 34.456H402.695V37H386.663Z" fill="#141414"/>
<path d="M419.587 37.48C418.179 37.48 416.899 37.208 415.747 36.664C414.627 36.088 413.731 35.224 413.059 34.072C412.387 32.888 412.051 31.416 412.051 29.656C412.051 27.064 412.947 25.144 414.739 23.896C416.531 22.648 419.219 21.96 422.803 21.832L426.739 21.688V19.048C426.739 17.96 426.675 17.016 426.547 16.216C426.419 15.384 426.147 14.744 425.731 14.296C425.315 13.816 424.659 13.576 423.763 13.576C422.963 13.576 422.323 13.8 421.843 14.248C421.363 14.696 421.027 15.32 420.835 16.12C420.643 16.888 420.547 17.768 420.547 18.76C418.403 18.76 416.787 18.52 415.699 18.04C414.611 17.56 414.067 16.728 414.067 15.544C414.067 14.36 414.515 13.416 415.411 12.712C416.307 12.008 417.507 11.496 419.011 11.176C420.515 10.824 422.163 10.648 423.955 10.648C427.315 10.648 429.827 11.256 431.491 12.472C433.187 13.688 434.035 15.8 434.035 18.808V31.048C434.035 31.912 434.115 32.6 434.275 33.112C434.467 33.592 434.771 33.944 435.187 34.168C435.635 34.36 436.211 34.456 436.915 34.456H437.107V37H428.179L427.171 33.688H426.739C426.035 34.552 425.363 35.272 424.723 35.848C424.115 36.392 423.411 36.792 422.611 37.048C421.811 37.336 420.803 37.48 419.587 37.48ZM422.227 33.976C423.155 33.976 423.955 33.736 424.627 33.256C425.299 32.744 425.811 32.024 426.163 31.096C426.547 30.168 426.739 29.08 426.739 27.832V24.232L424.579 24.376C423.299 24.44 422.291 24.696 421.555 25.144C420.819 25.56 420.291 26.168 419.971 26.968C419.651 27.736 419.491 28.696 419.491 29.848C419.491 30.744 419.587 31.512 419.779 32.152C419.971 32.76 420.275 33.224 420.691 33.544C421.107 33.832 421.619 33.976 422.227 33.976Z" fill="#141414"/>
<path d="M450.625 37.48C448.545 37.48 446.769 37.016 445.297 36.088C443.825 35.16 442.705 33.72 441.937 31.768C441.201 29.784 440.833 27.256 440.833 24.184C440.833 21.08 441.201 18.536 441.937 16.552C442.705 14.568 443.809 13.096 445.249 12.136C446.721 11.176 448.481 10.696 450.529 10.696C452.321 10.696 453.793 11.064 454.945 11.8C456.097 12.504 457.009 13.416 457.681 14.536H458.017C457.953 13.928 457.889 13.272 457.825 12.568C457.761 11.864 457.713 11.176 457.681 10.504C457.649 9.79998 457.633 9.19198 457.633 8.67998V6.03998C457.633 5.14398 457.457 4.48798 457.105 4.07198C456.753 3.65598 456.273 3.38398 455.665 3.25598C455.089 3.12798 454.449 3.06398 453.745 3.06398H453.361V0.519978H464.929V31.096C464.929 32.056 465.105 32.776 465.457 33.256C465.841 33.736 466.337 34.056 466.945 34.216C467.553 34.376 468.209 34.456 468.913 34.456H469.105V37H459.793L458.449 33.256H458.017C457.313 34.536 456.369 35.56 455.185 36.328C454.033 37.096 452.513 37.48 450.625 37.48ZM452.689 33.88C454.577 33.88 455.873 33.08 456.577 31.48C457.281 29.848 457.633 27.384 457.633 24.088C457.633 21.976 457.473 20.184 457.153 18.712C456.865 17.24 456.369 16.136 455.665 15.4C454.961 14.632 453.969 14.248 452.689 14.248C451.633 14.248 450.769 14.632 450.097 15.4C449.457 16.168 448.977 17.288 448.657 18.76C448.369 20.2 448.225 21.992 448.225 24.136C448.225 26.312 448.369 28.12 448.657 29.56C448.977 31 449.457 32.088 450.097 32.824C450.769 33.528 451.633 33.88 452.689 33.88Z" fill="#141414"/>
<path d="M484.437 37.48C480.597 37.48 477.573 36.376 475.365 34.168C473.157 31.928 472.053 28.552 472.053 24.04C472.053 19.528 473.109 16.168 475.221 13.96C477.333 11.752 480.453 10.648 484.581 10.648C488.421 10.648 491.445 11.752 493.653 13.96C495.861 16.168 496.965 19.528 496.965 24.04C496.965 28.552 495.893 31.928 493.749 34.168C491.637 36.376 488.533 37.48 484.437 37.48ZM484.533 34.456C485.781 34.456 486.757 34.072 487.461 33.304C488.197 32.504 488.725 31.336 489.045 29.8C489.365 28.232 489.525 26.312 489.525 24.04C489.525 21.736 489.365 19.832 489.045 18.328C488.725 16.792 488.197 15.64 487.461 14.872C486.725 14.104 485.749 13.72 484.533 13.72C483.285 13.72 482.293 14.104 481.557 14.872C480.821 15.64 480.293 16.792 479.973 18.328C479.653 19.832 479.493 21.736 479.493 24.04C479.493 26.312 479.653 28.232 479.973 29.8C480.293 31.336 480.821 32.504 481.557 33.304C482.325 34.072 483.317 34.456 484.533 34.456Z" fill="#141414"/>
</svg>
